<svg xmlns="http://www.w3.org/2000/svg" viewBox="0 0 431.85 478.19"><defs><style>.cls-1{fill:#048bb5;stroke:#000;stroke-miterlimit:10;}</style></defs><title>carte_france</title><path id="region_haut_de_france" class="cls-1" d="M244.79.5c.59,3.17,2.17,6.17.86,9.63-.61,1.61.44,3.27,2.2,4a6.45,6.45,0,0,1,3.25,2.95c1.57,2.82,3.43,3.28,6,.92,1.58-1.47,3.79-2.88,5.83-1.68a7.11,7.11,0,0,1,3.7,6.55c0,5.46,1.3,6.44,6.88,6.42,4.21,0,7.15,1.36,7,6.28-.05,1.9.28,3.51,2.85,2,2.29-1.34,4.89-.9,7.34-.75,4.53.28,4.49,3.26,5.49,7.13,1.08,4.18-1.15,8.61,1.78,12.45,2,2.66,0,11.91-3.29,14.29-2.11,1.54-2.34,2.41-1.9,5.08.41,2.49,2.27,7-4,7.65-6,.64-7.81,4.19-8.35,10.17-.36,3.89-2.3,7.41-1.1,11.75.75,2.71-4.57,4.63-7.07,2.74s-4.93-3.75-5.68-7.24c-.46-2.14-2.29-2.94-4.73-2.26-7.38,2.08-14.23,1.06-21.37-2.17-4-1.8-9-3.3-14-1.51-1.48.54-3.29.2-4.95.16-.86,0-1.94-.47-1.62-1.43,3-9-2.57-18.14.35-27.36.79-2.48-1.06-6.4-3.64-8.86-2.17-2.07-4.24-4.24-6.25-6.46-.91-1-2.69-1.87-1.25-3.7,1.14-1.47,2.22-3,4.49-1.67.77.46,1.87,1.23,2.53-.11a1.87,1.87,0,0,0-.78-2.2c-2.49-1.9-2.31-4.56-2.28-7.26.07-6,0-12,0-18,0-6.61,3.65-11,10.29-12.29,4.08-.78,8.2-1.36,12.27-2.17,2.58-.51,5.31-.79,7.14-3.09Z"/><path id="region_corse" class="cls-1" d="M408.75,407.3c2.49.66,2.89-.14,1.95-3.37-.8-2.72-.22-5.88-.06-8.84.08-1.51,1.4-2.23,2.68-2.65a2.82,2.82,0,0,1,3.37,1.5,7.83,7.83,0,0,1,1.28,3.71c0,9.41,4.55,18,5,27.27a24.85,24.85,0,0,0,1,3.82c1.12,4.94,1.86,9.88-1.63,14.26-2.23,2.79-1.95,6.06-1.48,9.09,1.31,8.4-2.73,15.69-4.47,23.43-.59,2.64-5.83,3.05-7.86.21-1.52-2.11-3.41-2.32-5.32-3.1-4-1.65-9.34-2.24-6.9-8.94.45-1.22-.62-1.83-1.65-2-3.41-.45-3.76-2.26-2.21-4.86,1.25-2.11.77-3.46-1.58-4.09-4.22-1.14-3.67-3.73-1.75-6.37,1.59-2.19,2-3.32-1.11-4.56a5.28,5.28,0,0,1-1.92-8.33c1-1.09,1-1.34,0-2.08-2.67-2-2.57-4,0-6.07.37-.3.85-.76.88-1.17.4-5.27,3.82-8.53,8.21-10C400,412.63,401.92,406.06,408.75,407.3Z"/><path id="region_nouvelle_aquitaine" class="cls-1" d="M110.27,316c2.91-13.58,3.18-27,5.55-40.43,7.16,7,13.69,13.4,13.87,23.66,3-1.46,2.25-3.29,2.1-4.82-.93-9.31-4.13-17.43-12.64-22.41-4.5-2.63-7.4-6.08-7.1-11.51.18-3.22-4.83-3.9-3.58-7.75,4.67.46,4.62,3.87,4.58,7.16,0,1-.42,2,.88,2.44s1.51-.68,2.24-1.31c3.23-2.77,2.77-7.19,3-10.22.26-3.39-4.29-5.8-8.55-6-.53,0-1-.72-2.52-1.83,3.16.32,5.67,2.47,7.21-.6,3.08-6.13,8.37-5.75,13.5-3.91,4.2,1.51,6.57-1,9.41-2.82a1.6,1.6,0,0,0,.76-2.14c-3.66-6.16-1.05-13.73-4.6-20a16.34,16.34,0,0,0-2.83-4.36c-1.19-1.1-1.9-2.57-1.3-4,.71-1.72,2.31-.71,3.53-.51a6.39,6.39,0,0,0,5.92-1.75c3.56-3.33,7.94-3.4,12.36-2.29,1.23.31,2.19,1.51,3.52.14,1.1-1.12,2-3.71,3.58-2.85,3,1.63,7.39,3.9,7.72,6.36.83,6.35,4.75,4.74,7.85,3.92,3.76-1,6-1.21,7.62,3.2,1.55,4.17,5.55,7.19,5.24,12.43-.15,2.66,3.09,3.68,5,5.21,1.27,1,3.2,1.55,3.31,3.41.43,6.95,7.71,6.82,9.72,5.62,4.41-2.64,9.59.11,13.29-3.3,1.19-1.1,2.46-.59,3.76-.42,3.46.46,6.92.84,10.37,1.25.5.06,1.34,0,1.44.17,2.27,5.17,10.22,6.12,9.93,13-.15,3.28,3.81,6.41.27,9.73-.22.2-.18.77-.41.88-5.6,2.85-6.08,6.29-1.24,10.37-1.75,4.47,1,9-.08,13.44-.18.7-.21,2.13-1.3,1.45-4.55-2.84-3.13,1.93-4.61,3.16-5.17,4.32-4.8,11.19-8.24,16.22a2.65,2.65,0,0,1-2.32,1.23c-1.45.23-3.37,0-4.25.82-2.83,2.69-4.06.87-5.86-1.21-2.7-3.12-6.09-3.89-9.8-1.57-.68.42-1.85,1.24-1.75,1.56,1.76,5.66-3.4,8.45-5.46,12.32-1.68,3.13-4.6,6.66-7.49,8.28-3.88,2.19-2.63,4.26-2,6.8.48,2,1.39,3.53-2.14,3s-3.22,2.64-3,4.76c.71,6.67-3.07,9.82-9.52,10.11-6.08.29-12.33,1.91-18.12,3.59-2.91.84-6.11.81-9,2s-4.81,1.84-3.77,5.58a10.26,10.26,0,0,1-1.38,8.11c-1.26,2.13-1.62,5.07,1.14,6,3.92,1.3,4.58,3.39,5.88,7.3,2.18,6.59-1.05,9.88-4.23,13.94a17,17,0,0,1-2.23,2.62c-2.87,2.49-3.26,6.2-4.57,9.41-2.38,5.79-7.48,7.71-10.89,2.79-3.76-5.41-9.14-6.1-14.26-8C110.23,402,106.64,401,104,398c-1.39-1.55-1.82.35-2.42,1.09-.82,1-1.64,1.05-2.5.19s-.41-1.41.11-2.19c4.46-6.57,1.93-9.34-4.66-9.44-1.35,0-2.67-1.12-4-1.58-2.52-.86-2.54-2-.35-3.22,6.54-3.79,9.55-9.85,11.1-16.93,2.89-13.13,7.1-26,8.24-39.51.19-2.22,1-5.33,4.57-5.72,1.2-.13,3.75.72,3.1-1.72-.59-2.22-1.92-4.75-5.24-3.79A11.92,11.92,0,0,0,110.27,316Z"/><path id="region_occitanie" class="cls-1" d="M267.67,433.85c-7.71-6.71-12.35.62-17.6,2.84-3.18,1.34-5.16,2.3-8.33.09-4.22-2.95-8.93-4.81-13.36.15-1.3,1.45-3.22,1.12-3.71-.42-1-3.15-3.25-4.31-6-5.2A3.7,3.7,0,0,1,216,428.5c-.73-4.85-4.28-5.41-8.09-5.37-2.34,0-4.24-.4-5.6-2.47a2.53,2.53,0,0,0-1.59-1.11c-7.64-.68-14.25-4.5-21.3-7-2.32-.81-3.83.07-3.65,2.42.38,4.91-2.43,5.74-6.18,5-4-.83-8.53,2-12-1.87a1.54,1.54,0,0,0-1.43,0c-7.95,5.21-10.14-3.39-14.16-6.47-2.38-1.83.33-5.53,2.05-7.84a82.9,82.9,0,0,0,9.83-16c1.67-3.81-2.92-12.55-6.89-13.8-2.89-.91-2.66-2.5-1.5-4.53a12.53,12.53,0,0,0,1.54-9c-.83-4.44,3.87-2.29,4.28-2.08,2.8,1.52,5,2.79,6.36-1.58.16-.53,1.72-.79,2.66-.91,4.4-.55,8.87-.75,12.61-3.62.35-.26,1.17-.44,1.42-.23,4.09,3.43,6.15-.11,9.46-1.85,4-2.11,4.31-5.39,4-8.12-.42-3.4,0-4.44,3.35-4.38,2,0,3.16-.86,2.22-3.17-.67-1.67-2.33-4.18-1.17-5.07,2.85-2.17,3.8-5.65,6.59-7.86,4.43-3.52,8.16-7.84,8.44-13.94.08-1.61.56-2.48,1.93-3.05,2-.81,4.18-.29,5,1.22,2.64,5.1,6.46,4.54,10.68,2.84,1.33-.54,3-1.18,3.12.73.24,3.47,3.75,5.85,2.16,10.16-1.38,3.74,1.84,5.72,6,4.37a9.16,9.16,0,0,1,2-.25c7.27-.58,8.44-1.51,10.55-8.52.46-1.51.24-4.09,2.37-3.65,1.63.33,4.11.7,4.8,2.92s2.67,3.82,2.89,6.3c.11,1.35.85,2.74,2.37,2.83s1.64-1.41,2.12-2.42,1.33-2.12,1.36-3.19c.11-5.36,5.35-5.83,8.15-8.51,1.83-1.76,2.79.8,3.26,2.28,1.15,3.66,3.1,4.51,6.76,3s8.56.7,9.33,4.78c1.3,6.86,5.2,12.52,7.87,18.71,1.12,2.6,5.61,2.49,8.48,3.83,1.45-3.3,4.15-.39,6.09-1.22,5.19-2.24,7.06,1.38,8.08,5.14.72,2.68,1.55,5,3.63,6.85s1.45,3.4-.76,4.68c-1.7,1-3.68,1.74-4.08,4.06-.57,3.36-1.17,5.8-5.41,7.47-2.87,1.13-3.84,6.65-6.87,9.63-2.57,2.51-3.82,3.75-6.33,0-1.63-2.41-4.48-1.76-6.73-.27-2.5,1.65-4.86,3.51-7.27,5.28-4.2,3.09-7.69,7-13.2,8.35-3.32.79-6.84,2.28-8.34,6.25a2.53,2.53,0,0,1-3.83,1.09c-1.13-.68-2.18-.78-2.91.63a2.1,2.1,0,0,0,.49,2.73c3.41,2.35,2.57,5.82,2.63,9.06,0,2.83.11,5.66,0,8.49C263.31,425,263.12,429.7,267.67,433.85Z"/><path id="region_auvergne_rhone_alpes" class="cls-1" d="M369.76,232.9c-.76,3.12-1,5.82-4.13,7a2.83,2.83,0,0,0-1.88,3.62c.52,1.89,2.19,1.8,3.68,1.79a6.91,6.91,0,0,0,6.94-7.48c-.11-1.24.53-3.1,1.12-3.05,4.74.43,8.06-4.46,13-3.2,2.58.65,6.52,4.87,5.46,7-2.38,4.84,1.55,7.41,3.8,9.82,4.61,4.95,4.88,6-.77,9.48a5.8,5.8,0,0,0-.12,9.6c2.18,1.46,4.08,2.52,4,5.52,0,.76,1,1.66,1.7,2.29,6.34,5.7,5.79,9.76-.52,14.89-3.71,3-7.7,3.06-11.73,3.83-2.08.4-4.32-.05-6,1.86-1.22,1.41-1.95-.08-2.87-.63-2.62-1.58-5-1-6.33,1.6-1.24,2.38-1.43,4.86,2.08,5.89,1.53.45,2.83,1.77,2.52,3.27s-2.46,2.05-3.69,1.9c-6.28-.76-11.44,3.58-13.9,7.05-2.57,3.63-10.49,4.55-7.78,11.7.29.76-.83.69-1.46.59-2.48-.38-4.15,0-4.26,3.16-.11,3-.47,5.77,3.39,6.59a9.73,9.73,0,0,1,1.88.65c1.61.71,3.42,2.47,3,3.51-.64,1.72-2.49,3.15-4.12,4.29s-2.95-.31-3.62-1.57c-1.18-2.24-3.35-1.85-5.18-2.39-1.58-.47-4.07.17-3.42-2.91a1.44,1.44,0,0,0-.05-.5c-5,1.18-3.32-4.11-5.47-5.7s-4.51-1.39-5.47,1c-2.54,6.17-7.68,3.32-11.84,3.86-3.42.44-7-2.31-10.37.83-1.81,1.67-3.8-.38-4.66-1.5a42.58,42.58,0,0,1-7.59-14.45c-1.47-5.46-4.25-9.05-9.4-11.14-1.37-.56-2.51-1.05-3.55.19-2.86,3.42-3.91.79-4.6-1.51-1.28-4.29-3.73-3.28-7-2.4-6,1.63-7.9,6.17-9,11.8-3.37-2.76-2.38-8-6.81-9.28-1.39-.42-1.37-3.61-3.69-2.3a10.36,10.36,0,0,0-4.58,4.45,19.06,19.06,0,0,0-1.47,4.18c-.92,4.67-3.85,5.53-8.12,5-3.13-.38-5.42-.7-3.77-4.68.22-.54.25-1.58-.08-1.86-3.6-3-3.12-6.75-1.26-10.19,2.73-5.05,1.9-11.87,7.64-15.4.52-.32,1-1.33,1.32-1.27,5.19.92,5.36-2.91,4.54-5.79-1.56-5.46,2.57-11.78-2.7-16.6-.92-.85-.09-1.88.81-2.44,2.8-1.77,5.76-4.67,4.94-7.4-1.53-5.09-.7-11.17-5.34-15.18-1-.86-1.9-1.83-2.91-2.67-1.57-1.3-3.05-2.88-2.43-4.93s2.89-2.87,4.89-2.8c4,.12,6.77-.59,5.49-5.54a2.08,2.08,0,0,1,0-1c.76-3.06,11.92-7,14.1-4.74,4.42,4.65,10.68,1.63,15.51,4.2,6.9-5.94,6.54.94,7.74,4.52.91,2.7,3.43,2.36,5.22,3.28,4.07,2.09,5,4.68,2,8.07-1.49,1.68-2.53,3-1.24,5.15s3.25,3.42,5.71,3a18.59,18.59,0,0,1,7.39.34c2,.49,4.55-.24,5-2.18.8-3.38,2.27-4,5.53-3.63,2.66.32,4.78-.3,5.75,3.44.72,2.74,3,1.38,3.74-.63,1.12-3.12,1.82-6.38,2.68-9.59,1.33-5,5.24-6.36,9.92-3.91,3.56,1.87,5.58,5.14,8.12,7.94.78.86,1.56,2.54,2.53,1.86,3.76-2.61,7.24-.66,10.92,0,2.89.49,4.17-2.29,5.92-4C366.08,235.22,367,233.25,369.76,232.9Z"/><path id="region_grand_est" class="cls-1" d="M327.94,165.23c.36-6.71-7.56-14.5-13.11-14-.49.05-1.25,0-1.44.23-3.87,5.74-10.33,2.78-15.4,4.51-4.13,1.4-7.47-.3-8.72-4.94-.76-2.82-1.84-5.32-5.48-5.35-1.46,0-1.87-1.35-1.73-2.57a6.63,6.63,0,0,0-3.66-6.63c-4.42-2.54-4.15-5.79-1.59-9,2.22-2.81,2.18-5,.29-7.86-2.46-3.7-.9-6.85,1.92-9.61s3.28-5.76,4-9.62-.44-7.28.36-10.46,5.21-3.53,8.29-3.53c2.51,0,3.37-.63,3.41-2.89.08-5.55,1.19-10.53,4.8-15.21,1.66-2.16,1.36-6.13,1.26-9.26-.09-2.94.39-3.37,3.31-2.63,4.5,1.15,8-1.33,9.78-5.86a15.28,15.28,0,0,1,2.07-3.37c.49-.67,1.2-1.29,2.12-.83a1.58,1.58,0,0,1,.57,2.53c-3.23,4.81,1.13,9.06,1,13.66,0,1,1.37,1.32,2.32,1.64,6.75,2.24,12.52,5.81,16.41,12,1.76,2.8,4.26.92,5.71.18,3.25-1.66,5.46-1.72,8.46.82,2.56,2.17,5.92,3.12,9.59.56,3.37-2.36,12.63,2,14.28,5.76a46.15,46.15,0,0,0,4.91,7.92c1.15,1.63,2.91,1.84,4.18.17,1.87-2.47,3.78-1.81,5.49-.19,3.44,3.3,7.09,3.05,10.95,1.06,1.24-.64,3-1.37,3.77-.55,5.75,6.07,13.79,3.6,20.59,5.69,2.74.84,3.31,1,2.73,4.31-.83,4.84-4,8-6.64,11.09-4.7,5.58-4.66,12-5.56,18.44-.09.65.34,1.54,0,2-6.79,9-1.88,20-5.31,29.59a5.75,5.75,0,0,0,.59,4.75c1.77,3.65.06,8.74-3.22,10-3.64,1.42-6.56-.08-8.1-4.8-.94-2.87-3.38-5.06-3.14-8.57.13-1.88-2.37-3-4.15-3.94-2.63-1.41-5.32-2.72-7.83-4.33-2.16-1.38-3.9-4-6.84-1.43-3.23-3.72-8.85,1-12.1-3.61-1.53-2.14-7.73-.19-9.81,3-1.39,2.12-3.43,3.7-4.72,5.7-2.79,4.34-4.19,9.81-11.1,9.37-1-.06-1.58,4.23-3.15,2.56-2.93-3.12-7.73-1.66-10.14-5.07A1.7,1.7,0,0,1,327.94,165.23Z"/><path id="region_bourgogne_franche_compte" class="cls-1" d="M322.89,242.49c-2-5.62-5.36-3.71-8.36-3.92-3.35-.23-5.89-.42-6.54,3.78-.26,1.64-1.76,2.31-3.47,2.14-1.33-.13-2.65-.34-4-.38-6.35-.19-6.35-.17-4.32-6,1.57-4.5.38-7.74-4.09-9.4-3.8-1.42-4.65-4.8-6.37-7.73-1.57-2.66-2.18-6.06-7.23-2.66-2.6,1.75-8.25,1.09-12.36-.36a2.94,2.94,0,0,1-2-3.1c.49-9.28-.31-18.08-5.17-26.59-1.19-2.1-2-7.49.53-11.2,1.41-2,.27-4.27-.71-6.14s-1.13-2.84,1.16-3.66c2.07-.75,2.92-2.57,2.79-4.82,0-.79-.11-2,.34-2.33,4.91-3.75,2.38-7.74-.32-10.68-3.87-4.22-.76-8.42.73-10.91,2.12-3.52,7.38-1.38,11.16-1.16,3.21.19,5.08,2.91,4.86,6.47-.1,1.67.64,3.32,2.11,3.63,4.26.9,5.51,4.24,6.95,7.57a5.68,5.68,0,0,0,6.38,3.66c6.7-.71,13.65.41,19.63-4.43,3-2.46,11.11,4.38,10.51,9.05s1.61,6.81,5.49,7.92c2.06.58,4.06.85,5.78,2.51A3.5,3.5,0,0,0,342,173c1.44-2.45,3.09-2.64,5.61-2.67,2.12,0,5-.53,5.19-3.61.24-5,4.27-7.41,7-10.54,1.56-1.79,4.47-5.08,7.54-.82a2.78,2.78,0,0,0,3.68.48,4.09,4.09,0,0,1,5.42.8c.53.53,1.61,1.1,2.18.9,7.35-2.49,10.64,5.19,16.46,6.54,1.34.31,1.37,2.06.8,3.48-.44,1.1-.76,2.72.23,3.29,5,2.92,1.77,5.15-.38,7.64-2.73,3.17-2.64,3.3,1.46,4.38-1.44,7-8.24,10.54-10.95,16.8-.49,1.12-2.33,1.87-3.7,2.36-3.18,1.16-4.41,3.3-3.92,6.56a7,7,0,0,1-3,6.94c-4.05,3.21-7.54,6.76-8.25,12.29-.4,3.11-2.6,5.29-4.61,7.54-2.14,2.4-4.15,3.86-7,.94-1-1.06-2.78-1.9-4-.53-3.1,3.41-4.9.52-6.76-1.28a48.82,48.82,0,0,1-4.79-4.89c-3.17-4.14-7.35-1.67-10.93-2.51-2-.47-2.71,2.15-3.23,3.86C325,234.32,324.16,237.7,322.89,242.49Z"/><path id="region_centre_val_de_loire" class="cls-1" d="M210.84,110.72c.37.5.89.89.88,1.26-.22,6.9,2.53,12.59,6.77,17.85,1,1.26,1.56,3,3.19,3.6a4.09,4.09,0,0,1,2.84,4.21c.06,3.93,2.49,4.45,5.41,3.42a11.77,11.77,0,0,1,8.22-.2c2.55,1,5.58,2.06,3.31,6-1.43,2.51.34,3.27,2.46,3.15,3.46-.2,6.94-.46,10.37-1,4.45-.66,7.79,1.3,8.86,5.41a2.92,2.92,0,0,1-1.11,3.07c-1.52,1.45-3.51,2.5-2.09,5.34.82,1.64-.92,2.27-2.27,2.46-3.46.49-3.68,2.24-2,4.83,1.47,2.3,3,4.52-.29,6.74-1.08.73-.66,2.18,0,3.2a6.23,6.23,0,0,1,.53,6.16c-.32.83-.39,2.37.11,2.83,4.3,3.94,4.26,9.57,5.58,14.54.8,3,1.21,8.4-.22,9.22-2.66,1.52-5.1,4.38-8.42,4.43-4.83.06-6.49,3-7.38,7-.21.91.47,2.6-.55,2.67-7.59.55-13.2,9.39-22,5.12-2.14-1-4.91-1.53-6.69,1.27-.08.12-.29.3-.4.27-4.93-1.14-9.5,1.83-14.38,1.25-1-.12-1.25-.83-1.68-1.56-1.86-3.1-3.85-6-7.47-7.5a3.4,3.4,0,0,1-2.23-3.1c.13-7.24-6.15-11.42-8.41-17.56-.73-2-2.78-3.57-5.45-.76s-5.65,3.36-6.75-1.67c-.52-2.36-2.85-2.82-4.37-3.76-4.37-2.71-3.89-6.19-1.93-9.69a27.2,27.2,0,0,0,3.32-8.69c.47-2.7.86-4.66,5-4.26,2.89.28,6.52-3.14,8.23-5.3,2.79-3.53,7-6.66,7.84-11.33.92-5.1,3-10.22.67-15.66-1-2.47-2.22-5.41,2.19-7.16,3.57-1.42,3.6-7.25.72-10.89-3.13-4-2.87-4.34,1.78-6.45,3.12-1.42,6.1-2.39,9.54-1.85a3.59,3.59,0,0,0,4.32-2.57C207.53,113,209.44,112.22,210.84,110.72Z"/><path id="region_pays_de_la_loire" class="cls-1" d="M85.15,185.63c-3.23,1.66-5.75,3-9.07,1.18-1.62-.91-3.6-.05-3.36-3.28.21-2.9,1.32-4.67,3.91-4.69,3.56,0,6.29-2,9.41-3.05a4.07,4.07,0,0,0,3.09-4,3.75,3.75,0,0,1,4-3.73c5.87.36,10.85-1.6,15.58-4.72a3.54,3.54,0,0,1,4.48-.07c2.94,1.92,5.1,1.27,6.25-2.56.88-2.92,1-6.51,5.64-7.21,2-.3,1.45-3.7.72-5.3-2.74-6,.73-11.93-.1-17.95-.26-1.84,3.39-3,5.45-.84,1.86,1.91,3.68,1.86,6.18,1.79,3.81-.11,7.64-1.41,10.77-2.41,5.52-1.78,6.8,1.39,8.64,4.28,2.3,3.63,4.49,3.11,7.32.89,4.84-3.77,5.84-3.3,7.68,2.82,1,3.29,4,4.72,6.81,5.92a40.41,40.41,0,0,1,5.71,2.83c2.17,1.35,3.27,2.24,1.56,4.84s1.14,5.23-.74,8.75c-2.09,3.91-5.49,6.39-7.57,10-1.75,3.09-6.33,3.67-8.21,3.63-4.34-.08-4.16,2.29-4.66,4.69-1.37,6.64-3.25,13-7.87,18.25-1.33,1.51-2.89,1.54-4.79,1.8-5.14.71-11.1-1.28-15.07,4.1-.84,1.14-2.53.57-3.81.36-2.29-.37-4.7-.16-5.81,1.82-1,1.78.36,4,1.47,5.47,5.56,7.33,6.21,15.6,5.57,24.34-.21,2.77-1.75,3.39-3.48,2.71-5.66-2.23-10.8-2.48-16.21,1.12-3,2-4.31-2.68-7.13-3.36-2.46-.6-4.91-2.37-7.22-3.71-3.57-2.06-7.43-4.45-8.19-9.41-.55-3.59-3-6.27-5.56-8.65-2.87-2.65-3-5.14-.62-8.26,4.22-5.57,3-8.32-4-9.84.86-1.17,2.79-1.8,2.45-3.47S85.34,188,85.15,185.63Z"/><path id="region_paca" class="cls-1" d="M359.75,340.45c-.33-2.58-2.85-4.22-5.91-5.35-1.08-.39-2.74-.63-2.27-2,.35-1,.2-3,2.65-2.83,3,.18,4.06-1.59,3-4.55-.58-1.67-.68-3.81,1.53-4,4.7-.3,6.4-4.49,8.95-7.05s5.11-3.45,8.35-4.19c2.3-.53,5.86.3,6.57-3.18.64-3.14-1.37-5.33-3.9-6.88-1.11-.69-2.16-1.38-1.19-2.65s2.21-1.13,3,.51c1.14,2.27,3.14,1.82,4.69.9,1.3-.77,2-3.4,3.84-2.21,2.24,1.45,4.76,3.3,5.24,6.13.56,3.28,2.79,4.35,5.34,5.21,4.83,1.62,6,4.56,3.57,9.18-3.46,6.47-4.64,12.62.82,18.94a8.49,8.49,0,0,0,4.6,3.09c1.28.32,2.8.51,3.7,1.33,3.76,3.42,7.69,3.17,12,1.32,1.94-.83,4.38-2.53,5.92.82,1.29,2.82,1.86,5.63-1.5,7.27a5.94,5.94,0,0,0-3.15,5.27c.6,7.58-5.89,8.36-10.12,11.09-1.59,1-3.29,1.38-3.21,3.66,0,.16,0,.43-.12.47-4.33,1.9-6.2,7.28-9.87,8.74-3.88,1.53-4.73,4.72-7.19,6.86-.32.29-.66,1.13-.52,1.28,5.11,5.71-1.53,3.92-3.28,5.08-7,4.64-15.72,3.46-23.12,6.75-1.62.72-2.29-.1-3.23-1.27-2.85-3.55-6.66-5.74-11.23-5.08-3.35.48-5.41-2.21-5.27-3.58.45-4.48-1.92-2.81-4.12-2.78-3.56.05-7.13.46-10.1-2.79-2.62-2.86-3.87-2-5.2,1.72-1,2.84-3.83,1.31-5.84,1.26-1.57,0-3.8-.31-1.46-2.81,1-1.11.06-1.78-1-2.1s-2-.37-2.93-.62c-2.21-.57-5.75.77-6.46-1.09-1-2.62,3.7-2.63,4.19-4.54.89-3.42,2.15-5.71,6-5.74.7-5.95,3.85-10.35,8.45-14,.7-.55.22-2.47-.83-3.1-4.21-2.56-3.68-7.56-5.88-11.12-.43-.69-.83-1.63.32-2a1.34,1.34,0,0,1,1.81,1.2c.79,4.45,2.74,2.56,5.15,1.26s4.75-1.79,8.11.11c3.95,2.22,8.52,3.61,12.71,5.82C354.45,349.77,359.61,345.11,359.75,340.45Z"/><path id="region_normandie" class="cls-1" d="M99.67,65.73c1.69.65,3.59,1,5,2a6.11,6.11,0,0,0,7.31.42c1.44-.79,3.59-.59,5.37-.4,2.44.27,3.85,1.4,1.91,4C117.57,74,118.21,76,120,78c1.23,1.33,2.43,2.77,2.59,4.73.12,1.46,1,1.93,2.37,1.92,9.3-.09,18.32,1.27,26.86,5.18,1.72.79,3.28,0,4.77-.69,4.5-2.06,9-4.2,13.39-6.29-.06-.49,0-1-.15-1.07-2-1.47-5.83-1.46-5.35-5a13,13,0,0,1,6.36-9.7,64.71,64.71,0,0,1,19.09-7.16c4.81-1,9.29-2.53,12.89-6,2.57-2.51,4.93-2.26,7.19.44s5.54,4.31,6.66,7.92c.65,2.06,1.25,3.81.34,6.17-1.07,2.74-.62,5.83,0,8.82,1.5,7.08,1.76,14.89-3.11,20a26.07,26.07,0,0,0-6.74,12.47,7.37,7.37,0,0,1-8.57,5.52c-3.16-.44-7,1.87-10.09,3.62-3.29,1.83-2.39,4.7-.45,7.23,3.81,5,3.66,7-1.53,9.91-3.3,1.86-1.85,4.06-.77,7.32-2.09-1.65-3.24-3-5.41-3.16-3.46-.24-5.84-2.3-6.7-6.16-1.15-5.2-5-6.51-9.29-3.59s-5.8,2.62-8.12-2.44c-1.58-3.45-2.9-3.12-6.67-2.44-5.81,1-11.43,5.07-18.56,1.15-3.54-1.94-10-4.15-15.22-.54-1.73,1.2-3.37,1.34-4.66-.74s-1-3.22,1.25-4.35,1.73-2.65-.26-3.62c-4.16-2-4.65-5.18-3-9.11.38-.92,1-2,.78-2.84-1.92-7.41-.83-15.76-6.31-22-2.46-2.82-2.84-6-2.67-9.29C101,71.27,101.32,68.61,99.67,65.73Z"/><path id="region_bretagne" class="cls-1" d="M62.24,174.67c1.08-2.54,4.88-1.49,3.3-4.53-1.07-2.06-2.74-1.58-4.72-1.13-4.15,1-7.9,1.1-11.56-2.65-3.46-3.55-7.92-6.73-13-7.67-5.34-1-9.57-4.4-14.71-5.64-1.61-.39-3-1.71-4.13,1.35-.75,2-4.64,1.79-4.86-.74C12,147,8.28,144,2.29,142c3.34-.44,6.68-.92,10-1.28,1.72-.18,3.41-.21,3.71-2.45.28-2.08-1.26-2.74-2.61-3.77-2.22-1.69-6.2-.38-7.25-4.54,4,0,7.56,3.16,12,1.08-3.24-2.87-6-5.43-10.91-4.23-1.88.46-6.05,2-5.82-1.88.16-2.71-1-6.43,3.77-8.71,5.66-2.68,11.87-1.39,17.2-4.23.4-.21,1.18-.31,1.44-.07,4.64,4.12,9.81,1.07,14.75,1.28,2.82.12,3.67-1.42,3.87-3.41.27-2.57,1.25-3.25,3.56-2.33.46.18,1.06.47,1.43.32,11.13-4.6,14.19,3.8,17.9,11.1.9,1.78,3.08,2.41,3.66,4.59.34,1.28,1.36.64,2.27-.09,1.67-1.35,3.74-2.23,5.3-3.68,2.28-2.12,4.48-2.66,7-.66,3.72,2.94,7,1.49,10.24-.93,1.46-1.11,2.36-2.37,3.23.78.77,2.76,3.85,2.81,6.38,2.68s3.89.7,4.92,3.13c2.37,5.58,4,6.11,9.29,3.38,1.52-.78,3.11-1.21,4.11,0a7.36,7.36,0,0,1,1.51,7c-1.14,3-1.61,6-.61,8.72,2.77,7.55-5.47,10.86-6.11,17-.1.93-1.42,1-2,.37-3.86-4.19-7.47-.87-9.92,1.21-2.75,2.34-5.41,2.64-8.56,2.88-4.34.34-8.38.88-9.77,6.5-.8,3.25-5.18,4.79-7.75,4C73.31,174.28,68.17,174.13,62.24,174.67Z"/><path id="region_ile_de_france" class="cls-1" d="M267.23,134.77c-3.9.22-7.32,1.07-7.4,6a4.73,4.73,0,0,1-3.8,4.67c-2.5.58-5.07.83-7.58,1.57-1.5.44-2.63-.15-3.34-2-2.51-6.62-7.79-8.92-14.39-6.62-1.08.38-2.7,1.19-3.12-.11-2.24-6.85-7.85-11.2-11.94-16.67a2.88,2.88,0,0,1-.54-1.86c.53-5.12-1.4-9.7-3.37-14.16-.94-2.13.26-2.38,1.19-3.75,3.35-5,7.95-4.17,12.84-4.37,6.63-.28,12.71.06,18.76,3.45,5,2.79,10.87,1.84,16.34.68,2.13-.46,3.34-.71,3.95,1.91.32,1.31,1.63,2.43,2.59,3.55,1.9,2.24,5.31,3.41,5.9,6.46,1.27,6.55,1.94,13.16-.94,19.6C271.2,135.73,269.16,134.84,267.23,134.77Z"/></svg>